<svg width="58" height="55" viewBox="0 0 58 55" fill="none" xmlns="http://www.w3.org/2000/svg">
<mask id="mask0_2_39" style="mask-type:luminance" maskUnits="userSpaceOnUse" x="0" y="0" width="58" height="55">
<path d="M57.1695 0H0V55H57.1695V0Z" fill="white"/>
</mask>
<g mask="url(#mask0_2_39)">
<path d="M27.8889 21.2261C26.4889 21.1896 21.0363 20.256 18.0662 23.9268C14.2417 28.6535 16.6171 33.5261 19.6136 35.997C21.7399 37.7495 26.6485 40.1712 29.5941 39.9906C32.4344 39.8174 37.2746 36.7228 39.2413 33.5225C41.6184 29.6547 42.3535 24.4648 37.3922 21.5635C32.666 18.7989 29.4415 21.2662 27.8889 21.2261Z" fill="white"/>
<path d="M25.6199 29.4614C25.2058 29.476 25.2199 28.9308 25.0883 27.7053C24.8637 25.6265 25.0059 25.8726 25.562 25.8507C25.7918 25.8435 26.176 25.3475 26.7234 25.6246C27.6953 26.1079 27.6883 28.7375 26.0287 28.3217C25.5918 28.2123 26.1953 29.4395 25.6199 29.4614ZM26.1392 26.2775C25.2357 26.3085 26.0041 28.4147 26.5041 27.4956C26.7234 27.0999 26.569 26.2611 26.1392 26.2775Z" fill="#014E72"/>
<path d="M28.7825 29.1368C28.2475 29.1569 28.772 28.4949 28.865 28.1521C28.9159 27.9624 28.5861 28.0828 28.2966 27.8822C27.8615 27.585 27.4493 25.8799 27.8282 25.6191C28.3948 25.2271 28.372 27.2166 28.8001 27.2002C29.3194 27.1819 28.979 25.7924 29.3106 25.5134C30.172 24.8004 29.9036 29.1004 28.7825 29.1368Z" fill="#EE765E"/>
<path d="M32.0938 28.0971C31.9552 28.1026 31.799 27.9931 31.7657 27.736C31.7517 27.6229 31.7201 26.7513 31.685 26.5579C31.6394 26.3136 31.5271 26.1841 31.3973 26.2297C31.3394 26.2498 31.2253 26.3391 31.1043 26.7075C31.0745 26.7969 30.9587 27.5427 30.9342 27.6357C30.8657 27.9038 30.785 28.0478 30.6727 28.1007C30.6394 28.1171 30.6043 28.1262 30.5675 28.1262C30.4482 28.1299 30.3464 28.0478 30.3008 27.9621C30.2254 27.829 30.2289 27.6156 30.2447 27.4588C30.2464 27.4406 30.3008 26.5343 30.3114 26.4522C30.3622 26.0583 30.4376 25.8778 30.5622 25.8595C30.7306 25.8359 30.7833 25.7647 30.8622 25.71C30.8868 25.6936 31.2394 25.4547 31.4236 25.4255C31.7008 25.3818 31.9289 25.5222 32.0674 25.6389C32.171 25.7264 32.2183 25.7647 32.2868 25.7684C32.3376 25.7665 32.5902 25.5714 32.6271 25.5459C32.7587 25.4547 32.913 25.4037 33.0762 25.3982C33.2464 25.3927 33.3867 25.4365 33.4622 25.4821C33.6218 25.5769 33.7973 25.8559 33.8376 26.0802C33.8692 26.2589 33.9849 27.3257 33.9867 27.5445C33.9885 27.7469 33.9639 27.984 33.7429 28.0314C33.599 28.0642 33.3955 27.9457 33.3359 27.6776C33.3113 27.5591 33.2095 26.7294 33.2095 26.7294C33.1955 26.6218 33.1131 26.3227 32.9692 26.3118C32.8692 26.3154 32.7534 26.4613 32.6937 26.5963C32.6481 26.6947 32.499 27.6083 32.4674 27.6977C32.385 27.9202 32.3341 28.0533 32.1341 28.0916C32.1201 28.0952 32.1061 28.0971 32.0938 28.0971Z" fill="#014E72"/>
<path d="M22.1232 29.3358C21.832 29.3467 21.7056 29.0787 21.6811 28.9747L21.6846 28.9729C21.6671 28.9237 21.6442 28.8434 21.6074 28.7103C21.574 28.6829 21.5214 28.6483 21.4635 28.6465C21.2741 28.6428 20.846 28.5517 20.5758 28.4404C19.9179 28.1651 19.7565 27.9626 19.6144 27.7839C19.5899 27.7547 19.5671 27.7256 19.5425 27.6964C19.2583 27.3736 19.1285 26.9323 19.1864 26.4837C19.2425 26.0406 19.4829 25.674 19.7039 25.5172C19.6776 25.499 19.653 25.4753 19.632 25.4461C19.5337 25.3148 19.5092 24.9574 19.8653 24.5635C20.1688 24.2243 20.4478 24.0894 20.6513 23.9909C20.753 23.9417 20.8618 23.9107 20.9671 23.8815C21.0425 23.8596 21.1162 23.8395 21.1916 23.8103C21.3302 23.7593 21.3548 23.6079 21.36 23.5459L21.3688 23.5113C21.4565 23.3235 21.5828 23.2141 21.7232 23.2013L21.7495 23.1995C21.9723 23.1922 22.0881 23.3399 22.1197 23.4675C22.1495 23.5897 22.26 23.6663 22.474 23.7119L22.6126 23.7429C23.2705 23.8869 23.3845 23.9617 23.767 24.2152L23.8916 24.3009C24.3021 24.5689 24.5494 25.2583 24.6056 25.5482C24.6565 25.82 24.7021 26.2503 24.5003 26.8557C24.3249 27.3827 24.0477 27.6617 23.8635 27.8459C23.4565 28.2526 22.8512 28.4623 22.653 28.5097C22.5846 28.5261 22.5618 28.6027 22.5284 28.9182C22.5144 29.0531 22.4881 29.3029 22.1635 29.3321C22.1512 29.3339 22.1372 29.3358 22.1232 29.3358ZM20.1285 25.3732C20.2565 25.3732 20.3337 25.4242 20.3688 25.457C20.439 25.5209 20.4565 25.6212 20.4179 25.7324C20.4057 25.767 20.3758 25.8035 20.325 25.86C20.2337 25.964 20.1758 26.181 20.1267 26.3998C20.0776 26.6223 20.153 26.9998 20.2899 27.2095C20.4197 27.4083 20.4846 27.4739 20.732 27.5833C20.9635 27.6855 21.2548 27.7146 21.3864 27.711L21.4127 27.7091C21.4741 27.7037 21.5197 27.6836 21.5478 27.6508C21.5811 27.6107 21.5934 27.5505 21.5846 27.4684C21.567 27.3061 21.5618 27.0782 21.5548 26.8393C21.5495 26.6533 21.5442 26.46 21.5337 26.285C21.5091 25.8856 21.4337 25.0686 21.4074 24.9154C21.3846 24.7805 21.353 24.7623 21.3232 24.7459C21.2898 24.7258 21.239 24.7167 21.1758 24.7203C21.0741 24.724 20.9758 24.755 20.9337 24.7732C20.6478 24.8899 20.5337 24.972 20.4723 25.023C20.3162 25.147 20.2372 25.2346 20.1285 25.3732ZM22.5618 24.6583C22.4758 24.662 22.453 24.7003 22.4004 24.8206C22.3442 24.9464 22.3302 25.3513 22.3565 26.0242L22.3582 26.0534C22.3688 26.3269 22.4407 27.1493 22.4811 27.2806C22.5249 27.4247 22.546 27.4921 22.6793 27.5268C22.7776 27.5523 22.9074 27.4994 23.0863 27.3627C23.481 27.0618 23.6723 26.6716 23.7284 26.0552C23.7652 25.6376 23.5302 25.1799 23.2828 24.9793C22.981 24.7349 22.7916 24.6747 22.6004 24.6601C22.5863 24.6583 22.5741 24.6565 22.5618 24.6583Z" fill="#FCBD16"/>
<path d="M34.1478 34.7401C33.4653 34.452 34.3513 33.8776 34.6495 33.17C34.8056 32.7998 34.7232 32.7506 34.4671 32.6594C33.6688 32.3731 33.4846 31.7239 33.7706 30.8778C34.2934 29.315 36.6495 29.2238 36.8354 30.6043C36.8372 30.6225 37.2565 33.3615 37.2688 33.511C37.3249 34.1857 36.6969 34.1475 36.8144 34.1438C36.0811 34.1748 36.4442 32.716 36.0302 32.7342C35.2811 32.7652 35.1513 35.1632 34.1478 34.7401ZM35.1565 30.4803C34.4355 30.7191 34.3723 32.4278 35.5741 31.9592C36.6197 31.5507 36.1232 30.1593 35.1565 30.4803Z" fill="#014E72"/>
<path d="M32.5585 34.8936C31.7322 34.9264 32.4269 32.9898 32.055 32.667C31.7918 32.4354 30.5041 32.5448 30.3901 32.5977C29.7129 32.9132 30.2585 34.8352 29.5129 34.8662C28.8761 34.8881 29.0585 33.9016 29.1971 32.1619C29.3077 30.7814 29.1673 29.7657 29.8322 29.7037C30.5181 29.66 29.8691 31.4361 30.2726 31.644C30.6059 31.8172 31.3287 31.7844 31.7392 31.675C32.1831 31.5565 32.283 31.0622 32.283 30.5972C32.283 29.5688 32.5181 29.4539 32.6251 29.4265C33.0953 29.3025 33.1374 30.3292 33.0935 31.1279C32.9023 34.6638 33.1163 34.8717 32.5585 34.8936Z" fill="#014E72"/>
<path d="M25.3402 34.8572C24.4069 34.8955 25.7209 33.4786 25.8192 33.3364C26.0963 32.9315 25.9928 32.9169 25.7595 32.7656C25.0332 32.2988 25.0332 31.6149 25.4964 30.8745C26.3753 29.4558 28.6805 29.8807 28.5402 31.2848C28.5384 31.3031 28.3104 34.0567 28.2858 34.2153C28.163 35.0195 27.3209 34.8371 27.3928 34.1095C27.542 32.6324 26.8349 33.3218 25.9876 34.5016C25.8753 34.6566 25.6929 34.8408 25.3402 34.8572ZM26.7069 30.9183C25.842 31.1426 26.0648 32.5084 26.9823 32.348C27.9911 32.1711 27.6191 30.6812 26.7069 30.9183Z" fill="#014E72"/>
<path d="M21.1559 35.687C20.5225 35.7126 20.9436 34.7953 20.091 30.705C19.8927 29.7586 20.6962 29.569 20.884 30.3367C21.1436 31.3925 21.2804 32.0909 21.4734 32.1566C21.8401 32.2806 22.5997 32.1074 23.005 31.9214C23.7891 31.5621 23.0278 29.4158 23.6646 29.2772C24.2032 29.155 24.212 30.0084 24.4646 32.4484C24.6347 34.1096 25.1277 35.1637 24.3716 35.1928C23.5049 35.2166 24.1558 32.7875 23.1313 32.8313C22.9541 32.8386 22.8295 32.8751 22.5629 32.928C22.0523 33.0301 21.5576 33.0793 21.5383 33.6465C21.519 34.292 21.8102 35.6633 21.1559 35.687Z" fill="#014E72"/>
<path d="M35.8797 25.3909C35.1885 25.2049 34.5779 25.6426 34.3586 26.5762C34.1394 27.5099 34.4429 28.1062 35.1411 28.2794C35.8411 28.4527 36.5814 27.922 36.7376 26.9555C36.8954 25.9909 36.399 25.5313 35.8797 25.3909ZM36.0323 26.9555C35.9393 27.4114 35.6042 27.6941 35.306 27.5828C35.006 27.4716 34.9165 27.1944 35.0411 26.7167C35.1657 26.2389 35.3779 26.0109 35.7288 26.0601C36.0639 26.1094 36.1271 26.4997 36.0323 26.9555Z" fill="#4AAE42"/>
<path d="M37.7879 15.3542C37.7879 15.3542 33.7248 14.2837 31.0634 15.8648C28.0021 17.6829 28.2179 21.2024 28.2179 21.2024C30.3617 20.8431 31.1547 22.6795 34.4546 21.6035C38.2317 20.3744 37.7879 15.3542 37.7879 15.3542Z" fill="#00625E"/>
<path d="M24.7542 16.293C24.7542 16.293 24.5508 17.4728 25.0384 18.6125C25.5244 19.7504 26.3771 20.0459 26.8648 20.1735C27.3524 20.3012 27.8384 20.2574 27.8384 20.2574C27.8384 20.2574 27.7174 19.8362 27.798 18.866C27.8788 17.8959 27.798 17.1373 26.8244 16.6303C25.849 16.1252 24.8753 16.5884 24.7542 16.293Z" fill="#00625E"/>
<g opacity="0.78">
<path style="mix-blend-mode:multiply" d="M24.7538 16.2932C24.7538 16.2932 24.5503 17.4731 25.038 18.6128C25.524 19.7507 26.3766 20.0461 26.8643 20.1738C27.352 20.3014 27.838 20.2576 27.838 20.2576C27.838 20.2576 27.7169 19.8364 27.7976 18.8663C27.8783 17.8961 27.7976 17.1375 26.8239 16.6306C25.8485 16.1254 24.8748 16.5886 24.7538 16.2932Z" fill="url(#paint0_radial_2_39)"/>
</g>
</g>
<defs>
<radialGradient id="paint0_radial_2_39" cx="0" cy="0" r="1" gradientUnits="userSpaceOnUse" gradientTransform="translate(24.358 18.5886) rotate(-37.3143) scale(4.16923 9.69137)">
<stop stop-color="#2581C4"/>
<stop offset="0.5189" stop-color="#2581C4" stop-opacity="0"/>
</radialGradient>
</defs>
</svg>
